<svg width="44" height="44" viewBox="0 0 44 44" fill="none" xmlns="http://www.w3.org/2000/svg">
<path d="M40.0701 16.1933L9.73672 1.02668C8.53961 0.430867 7.18788 0.218753 5.86582 0.419259C4.54376 0.619765 3.31571 1.22313 2.3491 2.1471C1.38249 3.07106 0.724362 4.27066 0.464449 5.58234C0.204535 6.89401 0.355484 8.25393 0.896714 9.47668L6.09671 21.1117C6.2147 21.393 6.27547 21.695 6.27547 22C6.27547 22.3051 6.2147 22.607 6.09671 22.8883L0.896714 34.5234C0.456231 35.5129 0.270018 36.5968 0.354998 37.6766C0.439978 38.7565 0.793456 39.7979 1.38331 40.7064C1.97316 41.6148 2.78069 42.3615 3.7325 42.8785C4.68431 43.3955 5.75023 43.6664 6.83338 43.6667C7.84788 43.6566 8.84727 43.4197 9.75838 42.9733L40.0917 27.8067C41.1677 27.2654 42.0721 26.4358 42.704 25.4105C43.336 24.3852 43.6707 23.2044 43.6707 22C43.6707 20.7956 43.336 19.6148 42.704 18.5895C42.0721 17.5642 41.1677 16.7346 40.0917 16.1933H40.0701ZM38.1417 23.9283L7.80838 39.095C7.41007 39.2863 6.9628 39.3512 6.52655 39.281C6.09031 39.2109 5.68593 39.009 5.36766 38.7025C5.04938 38.396 4.83242 37.9996 4.74586 37.5663C4.65931 37.133 4.70729 36.6836 4.88338 36.2783L10.0617 24.6433C10.1287 24.488 10.1866 24.3288 10.235 24.1667H25.1634C25.738 24.1667 26.2891 23.9384 26.6954 23.5321C27.1018 23.1258 27.33 22.5747 27.33 22C27.33 21.4254 27.1018 20.8743 26.6954 20.468C26.2891 20.0616 25.738 19.8333 25.1634 19.8333H10.235C10.1866 19.6712 10.1287 19.512 10.0617 19.3567L4.88338 7.72168C4.70729 7.31643 4.65931 6.86704 4.74586 6.43375C4.83242 6.00046 5.04938 5.60399 5.36766 5.2975C5.68593 4.99101 6.09031 4.78916 6.52655 4.71901C6.9628 4.64886 7.41007 4.71376 7.80838 4.90501L38.1417 20.0717C38.4966 20.2535 38.7945 20.5297 39.0024 20.87C39.2104 21.2102 39.3205 21.6012 39.3205 22C39.3205 22.3988 39.2104 22.7898 39.0024 23.1301C38.7945 23.4703 38.4966 23.7465 38.1417 23.9283Z" fill="#EEEEEB"/>
</svg>
