<svg width="64" height="64" viewBox="0 0 64 64" fill="none" xmlns="http://www.w3.org/2000/svg">
<circle cx="32" cy="32" r="32" fill="#2D3970"/>
<path d="M5.58026 41V22.8182H12.8601C14.1977 22.8182 15.3133 23.0165 16.207 23.413C17.1007 23.8095 17.7725 24.36 18.2223 25.0643C18.6721 25.7627 18.897 26.5676 18.897 27.479C18.897 28.1893 18.755 28.8137 18.4709 29.3523C18.1868 29.8849 17.7962 30.3229 17.299 30.6662C16.8078 31.0036 16.2455 31.2433 15.6122 31.3853V31.5629C16.3047 31.5924 16.9528 31.7878 17.5565 32.1488C18.1661 32.5098 18.6603 33.0159 19.0391 33.6669C19.4179 34.312 19.6072 35.0814 19.6072 35.9751C19.6072 36.9399 19.3675 37.801 18.8881 38.5586C18.4147 39.3103 17.7133 39.9051 16.7841 40.343C15.8549 40.781 14.7096 41 13.3484 41H5.58026ZM9.42436 37.8572H12.5582C13.6295 37.8572 14.4107 37.6531 14.902 37.2447C15.3932 36.8304 15.6388 36.2799 15.6388 35.5934C15.6388 35.0903 15.5175 34.6464 15.2749 34.2617C15.0322 33.877 14.686 33.5752 14.2362 33.3562C13.7923 33.1372 13.2625 33.0277 12.647 33.0277H9.42436V37.8572ZM9.42436 30.4265H12.2741C12.8009 30.4265 13.2685 30.3348 13.6768 30.1513C14.0911 29.9619 14.4167 29.6955 14.6534 29.3523C14.8961 29.009 15.0174 28.5977 15.0174 28.1183C15.0174 27.4613 14.7836 26.9316 14.3161 26.5291C13.8544 26.1267 13.1974 25.9254 12.3452 25.9254H9.42436V30.4265ZM28.9711 34.679H32.2382L33.8806 36.7919L35.4964 38.674L38.5415 42.4915H34.9548L32.8596 39.9169L31.7854 38.3899L28.9711 34.679ZM38.8167 31.9091C38.8167 33.8918 38.4408 35.5786 37.6892 36.9695C36.9434 38.3603 35.9255 39.4227 34.6352 40.1566C33.3509 40.8846 31.9068 41.2486 30.3028 41.2486C28.6871 41.2486 27.237 40.8816 25.9527 40.1477C24.6684 39.4138 23.6533 38.3514 22.9076 36.9606C22.1618 35.5697 21.789 33.8859 21.789 31.9091C21.789 29.9264 22.1618 28.2396 22.9076 26.8487C23.6533 25.4579 24.6684 24.3984 25.9527 23.6705C27.237 22.9366 28.6871 22.5696 30.3028 22.5696C31.9068 22.5696 33.3509 22.9366 34.6352 23.6705C35.9255 24.3984 36.9434 25.4579 37.6892 26.8487C38.4408 28.2396 38.8167 29.9264 38.8167 31.9091ZM34.9193 31.9091C34.9193 30.6248 34.7269 29.5417 34.3422 28.6598C33.9635 27.7779 33.4278 27.1091 32.7354 26.6534C32.0429 26.1977 31.232 25.9698 30.3028 25.9698C29.3736 25.9698 28.5628 26.1977 27.8703 26.6534C27.1778 27.1091 26.6392 27.7779 26.2545 28.6598C25.8757 29.5417 25.6863 30.6248 25.6863 31.9091C25.6863 33.1934 25.8757 34.2765 26.2545 35.1584C26.6392 36.0402 27.1778 36.709 27.8703 37.1648C28.5628 37.6205 29.3736 37.8484 30.3028 37.8484C31.232 37.8484 32.0429 37.6205 32.7354 37.1648C33.4278 36.709 33.9635 36.0402 34.3422 35.1584C34.7269 34.2765 34.9193 33.1934 34.9193 31.9091ZM57.7065 29.1836H53.818C53.747 28.6805 53.602 28.2337 53.383 27.843C53.164 27.4465 52.8829 27.1091 52.5396 26.831C52.1963 26.5528 51.7998 26.3397 51.35 26.1918C50.9061 26.0438 50.4237 25.9698 49.9029 25.9698C48.9618 25.9698 48.1421 26.2036 47.4437 26.6712C46.7453 27.1328 46.2038 27.8075 45.8191 28.6953C45.4344 29.5772 45.242 30.6484 45.242 31.9091C45.242 33.2053 45.4344 34.2943 45.8191 35.1761C46.2097 36.058 46.7542 36.7238 47.4526 37.1737C48.151 37.6235 48.9589 37.8484 49.8762 37.8484C50.3912 37.8484 50.8676 37.7803 51.3056 37.6442C51.7495 37.508 52.1431 37.3098 52.4863 37.0494C52.8296 36.783 53.1137 36.4605 53.3386 36.0817C53.5694 35.7029 53.7292 35.2708 53.818 34.7855L57.7065 34.8033C57.6059 35.6378 57.3543 36.4427 56.9519 37.218C56.5553 37.9875 56.0197 38.677 55.345 39.2866C54.6762 39.8903 53.8772 40.3697 52.948 40.7248C52.0247 41.074 50.9801 41.2486 49.8141 41.2486C48.1924 41.2486 46.7424 40.8816 45.464 40.1477C44.1915 39.4138 43.1853 38.3514 42.4455 36.9606C41.7116 35.5697 41.3446 33.8859 41.3446 31.9091C41.3446 29.9264 41.7175 28.2396 42.4632 26.8487C43.209 25.4579 44.2211 24.3984 45.4995 23.6705C46.7779 22.9366 48.2161 22.5696 49.8141 22.5696C50.8676 22.5696 51.8442 22.7176 52.7438 23.0135C53.6493 23.3094 54.4513 23.7415 55.1497 24.3097C55.8481 24.8719 56.4163 25.5614 56.8542 26.3782C57.2981 27.195 57.5822 28.1301 57.7065 29.1836Z" fill="#EEEEEB"/>
<circle cx="24.5" cy="51.5" r="2.5" fill="#D9D9D9"/>
<circle cx="31.5" cy="51.5" r="2.5" fill="#D9D9D9"/>
<circle cx="38.5" cy="51.5" r="2.5" fill="#D9D9D9"/>
</svg>
